<svg width="96" height="21" viewBox="0 0 96 21" fill="none" xmlns="http://www.w3.org/2000/svg">
<path d="M28.2288 6.88928H31.9555V18.6079H28.2288V16.5261C27.6119 17.8108 26.3271 18.6079 24.6056 18.6079C21.5217 18.6079 20.5454 16.5003 20.5454 14.0592V6.88928H24.2463V13.1596C24.2463 14.7787 24.7865 15.6782 26.1479 15.6782C27.5352 15.6782 28.2297 14.5219 28.2297 12.6969V6.88928H28.2288Z" fill="#121212"/>
<path d="M42.0765 10.6722C41.4738 10.3316 40.8979 10.2005 40.0866 10.2005C38.5156 10.2005 37.4681 11.0912 37.4681 13.107V18.607H33.6968V6.98025H37.4681V9.10126C37.9129 7.79245 39.1183 6.66553 40.6892 6.66553C41.3963 6.66553 41.9989 6.87504 42.3128 7.13716L42.0765 10.6722Z" fill="#121212"/>
<path d="M47.6299 18.607H43.6233V1.89209H50.6808C55.0058 1.89209 57.5262 3.90879 57.5262 7.51691C57.5262 11.125 55.0058 13.1685 50.6808 13.1685H47.6299V18.607ZM50.5221 9.93125C52.7243 9.93125 53.6265 9.10923 53.6265 7.54366C53.6265 5.97809 52.7243 5.12933 50.5221 5.12933H47.6299V9.93125H50.5221Z" fill="#121212"/>
<path d="M68.9168 15.1896C68.9168 15.7807 69.1736 16.0375 69.6363 16.0375C69.9707 16.0375 70.2533 15.9857 70.5876 15.8315V17.8099C70.0224 18.2209 69.3029 18.5552 68.1715 18.5552C66.8092 18.5552 65.8071 17.8357 65.4737 16.551C64.8308 17.8616 63.4177 18.5552 61.6444 18.5552C59.3567 18.5552 57.9177 17.3989 57.9177 15.4455C57.9177 13.2612 59.5626 12.3357 62.0813 11.848L65.2677 11.2828V11.0768C65.2677 9.99717 64.7283 9.35525 63.5978 9.35525C62.5181 9.35525 61.9788 10.023 61.7728 10.9743L58.3287 10.7175C58.7139 8.27646 60.5389 6.57983 63.8029 6.57983C66.7842 6.57983 68.9168 7.91628 68.9168 11.0251V15.1896ZM65.2677 13.2362L63.3919 13.6213C62.2355 13.8531 61.516 14.1349 61.516 15.0345C61.516 15.7031 62.0296 16.1141 62.8266 16.1141C64.1889 16.1141 65.2677 15.0862 65.2677 13.4671V13.2362Z" fill="#121212"/>
<path d="M74.3123 14.496C74.4666 15.6015 75.3403 16.2176 76.7285 16.2176C77.7306 16.2176 78.3983 15.8574 78.3983 15.2413C78.3983 14.6761 78.0382 14.3676 77.1136 14.2134L75.3662 13.9308C72.745 13.5198 71.3319 12.6202 71.3319 10.3592C71.3319 8.14902 73.2594 6.58167 76.3175 6.58167C79.5556 6.58167 81.4831 8.02064 81.714 10.4626L78.656 10.5651C78.4759 9.56303 77.6798 8.99778 76.2657 8.99778C75.3403 8.99778 74.7751 9.38293 74.7751 9.99989C74.7751 10.4626 75.1344 10.7452 75.7005 10.8219L77.9107 11.2071C80.4035 11.5922 81.8424 12.6977 81.8424 14.882C81.8424 17.2723 79.8124 18.6079 76.7026 18.6079C73.6187 18.6079 71.2802 17.349 71.0742 14.5736L74.3123 14.496Z" fill="#121212"/>
<path d="M86.0042 14.496C86.1585 15.6015 87.0322 16.2176 88.4204 16.2176C89.4225 16.2176 90.0902 15.8574 90.0902 15.2413C90.0902 14.6761 89.7301 14.3676 88.8055 14.2134L87.0581 13.9308C84.4369 13.5198 83.0238 12.6202 83.0238 10.3592C83.0238 8.14902 84.9513 6.58167 88.0094 6.58167C91.2475 6.58167 93.175 8.02064 93.4059 10.4626L90.3479 10.5651C90.1678 9.56303 89.3717 8.99778 87.9576 8.99778C87.0322 8.99778 86.467 9.38293 86.467 9.99989C86.467 10.4626 86.8263 10.7452 87.3924 10.8219L89.6026 11.2071C92.0954 11.5922 93.5343 12.6977 93.5343 14.882C93.5343 17.2723 91.5043 18.6079 88.3945 18.6079C85.3106 18.6079 82.9721 17.349 82.7661 14.5736L86.0042 14.496Z" fill="#121212"/>
<path d="M5.3687 16.5555C6.16932 15.7148 6.953 14.8919 7.75272 14.052C9.0009 14.9677 10.373 15.3065 11.8806 14.9605C13.0102 14.7011 13.9285 14.0939 14.6337 13.1739C16.046 11.3319 15.9319 8.68666 14.3823 6.97398C12.8212 5.24882 10.0904 4.73261 7.83207 6.34276C7.00471 5.55552 6.17289 4.76471 5.34106 3.97301C7.54321 1.78156 12.2881 0.774103 15.9746 3.71713C19.7085 6.69849 20.181 12.1691 17.0062 15.7549C13.8073 19.3711 8.52748 19.3363 5.3687 16.5555Z" fill="#121212"/>
<path d="M1.9985 12.8047C2.83121 11.9711 3.68621 11.1152 4.56796 10.2326C3.67997 9.37044 2.80446 8.52168 1.94946 7.69164C2.85885 6.77245 3.69513 5.92725 4.51447 5.099C6.23071 6.80276 7.95855 8.51722 9.66855 10.2147C7.96479 11.9497 6.26548 13.6802 4.58401 15.3929C3.71118 14.5192 2.87311 13.6793 1.9985 12.8047Z" fill="#121212"/>
</svg>
