<svg width="63" height="94" viewBox="0 0 63 94" fill="none" xmlns="http://www.w3.org/2000/svg">
<path d="M76.0005 0H51.9998C23.2815 0 0 28.6562 0 63.9999C0 99.343 23.2816 128 51.9995 128H76.0002C104.717 128 127.999 99.3427 127.999 63.9999C127.999 28.6562 104.718 0 76.0005 0ZM122.21 48H102.211C101.634 45.2502 100.906 42.5939 100.048 39.9997H119.969C120.867 42.5786 121.601 45.2502 122.21 48ZM111.68 24.0001C113.469 26.4928 115.094 29.1562 116.531 32.0005H96.8593C95.5244 29.1883 94.031 26.5234 92.3741 24.0001H111.68ZM93.0943 8.00031C97.2655 9.99967 101.157 12.7042 104.68 15.9998H86.3362V16.2191C83.4603 13.0938 80.359 10.2978 76.9681 8.00031H93.0943ZM51.9995 124C25.5315 124 3.9995 97.0861 3.9995 63.9999C3.9995 30.9144 25.5315 4.00002 51.9995 4.00002C78.4689 4.00002 100.001 30.9144 100.001 63.9999C100.001 97.0861 78.4689 124 51.9995 124ZM111.68 104H92.3749C94.0308 101.477 95.5242 98.8135 96.859 95.999H116.531C115.094 98.8431 113.469 101.507 111.68 104ZM71.8894 66.4617C73.4223 69.0398 74.1881 72.0477 74.1881 75.4924C74.1881 80.7803 72.6098 85.1879 69.4532 88.7115C66.3047 92.2425 61.7581 94.3194 55.8128 94.9449V104H48.234V94.9918C38.3206 93.9772 32.1875 88.2105 29.8204 77.711L41.5387 74.6564C42.6248 81.2567 46.2186 84.554 52.3195 84.554C55.171 84.554 57.2814 83.8523 58.6244 82.4364C59.9682 81.023 60.6403 79.3204 60.6403 77.3197C60.6403 75.25 59.9682 73.679 58.6244 72.618C57.2811 71.5467 54.2888 70.1947 49.6556 68.5549C45.4913 67.1096 42.2336 65.6877 39.89 64.2655C37.5464 62.8595 35.6407 60.8836 34.1792 58.3437C32.7183 55.797 31.9841 52.8279 31.9841 49.4533C31.9841 45.0236 33.2973 41.0314 35.906 37.4844C38.5156 33.946 42.6248 31.781 48.2345 30.9925V24.0001H55.8125V30.9925C64.2813 32.0084 69.7655 36.7977 72.2661 45.3673L61.8206 49.6488C59.7817 43.7737 56.6409 40.8365 52.3754 40.8365C50.235 40.8365 48.5163 41.492 47.2266 42.8045C45.9295 44.1177 45.2818 45.7108 45.2818 47.5785C45.2818 49.485 45.9068 50.9451 47.1561 51.9689C48.3978 52.9854 51.0781 54.2424 55.1717 55.7505C59.6717 57.3911 63.2027 58.946 65.7573 60.4069C68.3201 61.8676 70.3591 63.8909 71.8894 66.4617Z" fill="#222222"/>
</svg>
