<svg width="118" height="74" viewBox="0 0 118 74" fill="none" xmlns="http://www.w3.org/2000/svg">
<path d="M55.0247 65.1184C43.1543 69.6668 32.1715 78.3199 35.9434 97.0684L41.7122 113.043C43.0434 113.154 44.3747 113.154 45.7059 113.154C65.5637 113.154 83.4247 104.723 96.0715 91.2996L92.4106 81.8699C86.6418 66.8934 69.8903 59.3496 55.0247 65.1184Z" fill="#C6C6C6"/>
<path opacity="0.2" d="M54.4701 65.1184C44.2639 69.0012 34.7232 75.8793 34.6123 89.6355C34.6123 93.4074 35.3889 97.0684 36.6092 100.618L41.0467 112.932C42.7107 113.043 44.1529 113.154 45.7061 113.154C65.342 113.154 83.092 104.834 95.6279 91.6324L91.8561 81.759C86.1982 66.8934 69.4467 59.3496 54.4701 65.1184Z" fill="#222222"/>
<path d="M65.3422 61.7902C61.6813 61.7902 58.0203 62.4559 54.4703 63.7871C40.825 69.0012 33.8359 77.6543 33.725 89.6355C33.725 93.2965 34.3906 97.0684 35.8328 101.062L40.1594 112.932C41.1578 113.043 42.1562 113.043 43.1547 113.154L38.4953 100.175C37.1641 96.5137 36.4984 92.9637 36.4984 89.6355C36.6094 78.8746 42.8219 71.2199 55.4688 66.3387C58.6859 65.1184 61.9031 64.5637 65.3422 64.5637C76.6578 64.5637 87.0859 71.6637 91.0797 82.3137L94.9625 92.409C95.6281 91.6324 96.4047 90.9668 97.0703 90.1902L93.7422 81.4262C89.1938 69.6668 77.8781 61.7902 65.3422 61.7902Z" fill="#222222"/>
<path d="M45.7061 1.33008C21.1984 1.33008 1.33105 21.1974 1.33105 45.7051C1.33105 70.2127 21.1984 90.0801 45.7061 90.0801C70.2137 90.0801 90.0811 70.2127 90.0811 45.7051C90.0811 21.1974 70.2137 1.33008 45.7061 1.33008Z" fill="#FBFBFB"/>
<path d="M45.7061 1.33008C21.1984 1.33008 1.33105 21.1974 1.33105 45.7051C1.33105 70.2127 21.1984 90.0801 45.7061 90.0801C70.2137 90.0801 90.0811 70.2127 90.0811 45.7051C90.0811 21.1974 70.2137 1.33008 45.7061 1.33008Z" fill="#FBFBFB"/>
<path d="M45.7059 91.4121C70.8887 91.4121 91.4121 70.8887 91.4121 45.7059C91.4121 20.523 70.8887 -0.000392318 45.7059 -0.000392318C20.523 -0.000392318 -0.000383854 20.523 -0.000383854 45.7059C-0.000383854 70.8887 20.4121 91.4121 45.7059 91.4121ZM45.7059 2.66211C69.4465 2.66211 88.6387 21.9652 88.6387 45.5949C88.6387 69.2246 69.3355 88.6387 45.7059 88.6387C22.0762 88.6387 2.77305 69.3355 2.77305 45.7059C2.77305 22.0762 21.9652 2.66211 45.7059 2.66211Z" fill="#222222"/>
<g opacity="0.3">
<path d="M45.7061 79.9824C64.6764 79.9824 80.0967 64.5621 80.0967 45.5918C80.0967 26.6215 64.6764 11.2012 45.7061 11.2012C26.7357 11.2012 11.3154 26.6215 11.3154 45.5918C11.3154 64.5621 26.7357 79.9824 45.7061 79.9824Z" fill="#EAECF0"/>
</g>
<path d="M45.7059 81.4277C65.4527 81.4277 81.4277 65.3418 81.4277 45.7059C81.4277 26.0699 65.4527 9.87305 45.7059 9.87305C25.959 9.87305 9.98399 25.959 9.98399 45.5949C9.98399 65.2309 25.959 81.4277 45.7059 81.4277ZM45.7059 12.6465C63.8996 12.6465 78.6543 27.4012 78.6543 45.5949C78.6543 63.7887 63.8996 78.6543 45.7059 78.6543C27.5121 78.6543 12.7574 63.8996 12.7574 45.7059C12.7574 27.5121 27.5121 12.6465 45.7059 12.6465Z" fill="#222222"/>
<path d="M39.7153 45.3723C40.7137 46.0379 41.8231 46.4816 42.9325 46.8145C43.9309 47.1473 44.9293 47.3691 46.0387 47.702C46.9262 47.9238 47.9247 48.2566 48.8122 48.5895C49.4778 48.8113 50.1434 49.2551 50.6981 49.6988C51.1418 50.0316 51.4747 50.5863 51.8075 51.252C52.0293 51.6957 52.2512 52.4723 52.2512 53.9145C52.2512 54.691 52.1403 55.3566 51.9184 56.0223C51.6965 56.6879 51.2528 57.2426 50.809 57.7973C50.3653 58.352 49.6997 58.7957 48.9231 59.1285C48.1465 59.4613 47.1481 59.6832 45.9278 59.6832C44.8184 59.6832 43.82 59.4613 43.0434 59.1285C42.2668 58.7957 41.7122 58.352 41.1575 57.7973C40.7137 57.2426 40.27 56.577 40.0481 55.6895C39.7153 54.802 38.8278 54.3582 37.9403 54.5801C37.0528 54.9129 36.609 55.8004 36.8309 56.6879C37.1637 57.9082 37.8293 58.9066 38.6059 59.9051C39.3825 60.7926 40.3809 61.5691 41.6012 62.1238C42.3778 62.4566 43.2653 62.6785 44.2637 62.7895V64.0098C44.2637 64.8973 45.0403 65.6738 45.9278 65.6738C46.8153 65.6738 47.5918 64.8973 47.5918 64.0098V62.7895C48.4793 62.6785 49.3668 62.4566 50.1434 62.1238C51.3637 61.5691 52.3622 60.9035 53.2497 60.016C54.0262 59.1285 54.6918 58.241 55.0247 57.1316C55.4684 56.0223 55.5793 54.9129 55.5793 53.8035C55.5793 52.2504 55.3575 50.8082 54.8028 49.8098C54.359 48.7004 53.6934 47.8129 52.8059 47.1473C52.0293 46.4816 51.0309 45.927 50.0325 45.4832C49.034 45.0395 48.0356 44.7066 46.9262 44.4848C45.9278 44.152 44.9293 43.9301 43.9309 43.5973C43.0434 43.3754 42.1559 42.9316 41.4903 42.4879C40.8247 42.0441 40.27 41.4894 39.8262 40.7129C39.3825 39.9363 39.1606 39.0488 39.1606 37.8285C39.1606 36.941 39.2715 36.1645 39.4934 35.3879C39.7153 34.6113 40.159 33.9457 40.6028 33.391C41.0465 32.8363 41.7122 32.3926 42.4887 32.0598C43.2653 31.727 44.1528 31.616 45.2622 31.616C46.1497 31.616 47.0372 31.727 47.9247 31.9488C48.7012 32.1707 49.4778 32.6145 50.0325 33.1691C50.6981 33.7238 51.1418 34.5004 51.5856 35.4988C51.9184 36.3863 52.9168 36.7191 53.8043 36.3863C54.6918 36.0535 55.0247 35.0551 54.6918 34.1676C54.1372 32.8363 53.2497 31.616 52.3622 30.7285C51.3637 29.841 50.2543 29.1754 49.034 28.8426C48.5903 28.7316 48.0356 28.6207 47.4809 28.5098V27.1785C47.4809 26.291 46.7043 25.5145 45.8168 25.5145C44.9293 25.5145 44.1528 26.291 44.1528 27.1785V28.3988C43.1543 28.5098 42.1559 28.7316 41.2684 29.0644C40.0481 29.6191 38.9387 30.2848 38.1622 31.1723C37.3856 32.0598 36.72 33.1691 36.3872 34.3895C36.0543 35.4988 35.8325 36.7191 35.8325 37.9394C35.8325 39.7144 36.1653 41.2676 36.9418 42.5988C37.7184 43.7082 38.6059 44.7066 39.7153 45.3723Z" fill="#222222"/>
<path d="M59.4627 55.0238C50.6986 64.4535 44.5971 77.3223 56.5783 92.7426L84.7065 119.373C103.788 111.275 111.825 86.373 111.825 63.2332L101.064 53.3598C89.083 42.377 70.4455 43.1535 59.4627 55.0238Z" fill="#C6C6C6"/>
<path d="M81.0951 44.152C72.442 44.152 64.2326 47.8129 58.4639 54.1363C46.3717 67.3379 45.3732 80.5395 55.5795 93.6301L70.9998 108.385C71.8873 108.052 72.8857 107.608 73.7732 107.164L57.6873 91.8551C48.3686 79.8738 49.367 68.1145 60.4607 56.0223C65.7857 50.2535 73.3295 46.9254 81.0951 46.9254C88.0842 46.9254 94.8514 49.5879 100.065 54.3582L111.381 64.7863C111.714 63.7879 111.936 62.7895 112.269 61.791L101.951 52.3613C96.2936 47.0363 88.8607 44.152 81.0951 44.152Z" fill="#222222"/>
<path d="M81.0951 44.152C72.442 44.152 64.2326 47.8129 58.4639 54.1363C47.3701 66.2285 45.5951 78.4316 53.3607 90.4129C54.4701 92.1879 56.0232 93.9629 57.7982 95.7379L70.9998 108.385C71.8873 108.052 72.8857 107.608 73.7732 107.164L59.6842 93.741C58.0201 92.1879 56.6889 90.5238 55.6904 88.9707C48.7014 77.9879 50.2545 67.227 60.5717 56.0223C65.8967 50.2535 73.4404 46.9254 81.2061 46.9254C88.1951 46.9254 94.9623 49.5879 100.176 54.3582L111.381 64.7863C111.714 63.7879 111.936 62.7895 112.269 61.791L101.951 52.3613C96.2936 47.0363 88.8607 44.152 81.0951 44.152Z" fill="#222222"/>
<g opacity="0.5">
<path d="M95.5168 56.7978C87.9731 48.3666 72.9965 48.8103 64.1215 58.5728C54.2481 69.3338 54.359 84.865 63.3449 91.8541C69.2246 96.4025 75.1043 100.729 79.0981 103.613C79.3199 103.835 79.6528 103.946 79.8746 104.168C115.206 113.872 127.206 104.169 108.829 71.6635C108.607 71.4416 108.386 71.1088 108.164 70.8869C105.057 67.4478 100.398 62.3447 95.5168 56.7978Z" fill="#FBFBFB"/>
</g>
<path d="M96.5156 55.909C92.9656 51.9152 87.7516 49.6965 81.8719 49.6965C75.1047 49.6965 68.3375 52.5809 63.0125 57.5731C57.1328 63.1199 54.1375 70.2199 54.4703 77.3199C54.8031 83.5324 57.6875 89.1902 62.3469 92.9621C68.2266 97.5105 74.1063 101.837 78.1 104.721C78.2109 104.832 78.3219 104.832 78.3219 104.943C79.2094 104.389 80.2078 103.945 81.0953 103.39C80.6516 103.168 80.0969 102.836 79.6531 102.503C75.7703 99.6184 69.7797 95.4027 64.0109 90.8543C59.9063 87.6371 57.4656 82.7559 57.1328 77.3199C56.8 70.9965 59.5734 64.673 64.8984 59.6809C69.6688 55.1324 75.7703 52.5809 81.7609 52.5809C86.8641 52.5809 91.3016 54.4668 94.2969 57.7949C99.2891 63.3418 103.948 68.5559 107.055 71.884C107.388 72.3277 107.72 72.7715 108.053 73.2152C108.497 72.2168 108.941 71.3293 109.273 70.3309C109.162 70.2199 109.162 70.109 109.052 70.109C106.167 66.6699 101.508 61.4559 96.5156 55.909Z" fill="#222222"/>
</svg>
