<svg width="92" height="71" viewBox="0 0 92 71" fill="none" xmlns="http://www.w3.org/2000/svg">
<path d="M76.0005 -57H51.9998C23.2815 -57 0 -28.3438 0 6.99987C0 42.343 23.2816 70.9997 51.9995 70.9997H76.0002C104.717 70.9997 127.999 42.3427 127.999 6.99987C127.999 -28.3438 104.718 -57 76.0005 -57ZM122.21 -8.99997H102.211C101.634 -11.7498 100.906 -14.4061 100.048 -17.0003H119.969C120.867 -14.4214 121.601 -11.7498 122.21 -8.99997ZM111.68 -32.9999C113.469 -30.5072 115.094 -27.8438 116.531 -24.9995H96.8593C95.5244 -27.8117 94.031 -30.4766 92.3741 -32.9999H111.68ZM93.0943 -48.9997C97.2655 -47.0003 101.157 -44.2958 104.68 -41.0002H86.3362V-40.7809C83.4603 -43.9062 80.359 -46.7022 76.9681 -48.9997H93.0943ZM51.9995 66.9997C25.5315 66.9997 3.9995 40.0861 3.9995 6.99987C3.9995 -26.0856 25.5315 -53 51.9995 -53C78.4689 -53 100.001 -26.0856 100.001 6.99987C100.001 40.0861 78.4689 66.9997 51.9995 66.9997ZM111.68 47.0004H92.3749C94.0308 44.4766 95.5242 41.8135 96.859 38.999H116.531C115.094 41.8431 113.469 44.5075 111.68 47.0004ZM71.8894 9.46166C73.4223 12.0398 74.1881 15.0477 74.1881 18.4924C74.1881 23.7803 72.6098 28.1879 69.4532 31.7115C66.3047 35.2425 61.7581 37.3194 55.8128 37.9449V47.0001H48.234V37.9918C38.3206 36.9772 32.1875 31.2105 29.8204 20.711L41.5387 17.6564C42.6248 24.2567 46.2186 27.554 52.3195 27.554C55.171 27.554 57.2814 26.8523 58.6244 25.4364C59.9682 24.023 60.6403 22.3204 60.6403 20.3197C60.6403 18.25 59.9682 16.679 58.6244 15.618C57.2811 14.5467 54.2888 13.1947 49.6556 11.5549C45.4913 10.1096 42.2336 8.68767 39.89 7.26552C37.5464 5.85945 35.6407 3.88358 34.1792 1.34369C32.7183 -1.20305 31.9841 -4.17213 31.9841 -7.54668C31.9841 -11.9764 33.2973 -15.9686 35.906 -19.5156C38.5156 -23.054 42.6248 -25.219 48.2345 -26.0075V-32.9999H55.8125V-26.0075C64.2813 -24.9916 69.7655 -20.2023 72.2661 -11.6327L61.8206 -7.35121C59.7817 -13.2263 56.6409 -16.1635 52.3754 -16.1635C50.235 -16.1635 48.5163 -15.508 47.2266 -14.1955C45.9295 -12.8823 45.2818 -11.2892 45.2818 -9.42152C45.2818 -7.51503 45.9068 -6.05489 47.1561 -5.03107C48.3978 -4.01464 51.0781 -2.75763 55.1717 -1.24947C59.6717 0.391109 63.2027 1.94595 65.7573 3.40689C68.3201 4.86756 70.3591 6.89092 71.8894 9.46166Z" fill="#222222"/>
</svg>
